<svg xmlns="http://www.w3.org/2000/svg" viewBox="0 0 725.61 111.06"><defs><style>.cls-1,.cls-2{fill:#fff;}.cls-1{fill-rule:evenodd;}</style></defs><g id="Camada_2" data-name="Camada 2"><g id="Camada_1-2" data-name="Camada 1"><path class="cls-1" d="M95.19,21.15H57.36a1.32,1.32,0,0,0-.93,2.26L92.94,59.92A1.31,1.31,0,0,0,95.19,59Zm18.51,80.33V4a1.33,1.33,0,0,0-1.32-1.33H14.86a1.31,1.31,0,0,0-1.22.82,1.29,1.29,0,0,0,.29,1.44l97.52,97.52a1.3,1.3,0,0,0,1.44.28A1.29,1.29,0,0,0,113.7,101.48Zm2.65,9.58V0H5.29ZM97.84,62.18V18.51H54.17A2.64,2.64,0,0,0,52.3,23l41,41a2.65,2.65,0,0,0,4.52-1.87Z"/><path class="cls-1" d="M18.51,95.19a2.64,2.64,0,0,1-2.64-2.64V50a2.64,2.64,0,0,1,4.51-1.87L36.51,64.24a2.64,2.64,0,0,1-1.87,4.51H29.09a2.65,2.65,0,0,0-2.65,2.65V82a2.65,2.65,0,0,0,2.65,2.65H79.33L70.9,76.19,0,5.29V111.06H105.77L89.9,95.19Z"/><path class="cls-1" d="M298.79,89.9V39.44a11.23,11.23,0,0,0-3.4-8.22l-6.67-6.66a11.24,11.24,0,0,0-8.23-3.41H258.93a11.21,11.21,0,0,0-8.23,3.41L244,31.22a11.21,11.21,0,0,0-3.41,8.22V71.55A11.22,11.22,0,0,0,244,79.77l6.67,6.66a11.24,11.24,0,0,0,8.23,3.4h21.36V79.25l-20.71,0a2.56,2.56,0,0,1-1.87-.78L252,72.76a2.58,2.58,0,0,1-.77-1.87V40.1a2.56,2.56,0,0,1,.77-1.87l5.74-5.74a2.59,2.59,0,0,1,1.87-.77h20.25a2.56,2.56,0,0,1,1.87.77l5.74,5.74a2.53,2.53,0,0,1,.78,1.87V89.83Zm68.76-68.75V71.61a11.24,11.24,0,0,1-3.41,8.22l-6.67,6.67a11.27,11.27,0,0,1-8.23,3.4H327.68a11.24,11.24,0,0,1-8.23-3.4l-6.67-6.67a11.21,11.21,0,0,1-3.41-8.22V21.22L320,21.15V71a2.56,2.56,0,0,0,.77,1.87l5.74,5.74a2.59,2.59,0,0,0,1.87.77h20.25a2.56,2.56,0,0,0,1.87-.77l5.74-5.74A2.53,2.53,0,0,0,357,71V21.15ZM462.7,71.4V32.79a11.66,11.66,0,0,1,11.64-11.64h25.6a11.24,11.24,0,0,1,8.22,3.41l6.67,6.67a11.27,11.27,0,0,1,3.41,8.23V71.6a11.28,11.28,0,0,1-3.41,8.23l-6.67,6.67a11.23,11.23,0,0,1-8.22,3.4H462.78l-.08-10.57h36.58a2.53,2.53,0,0,0,1.87-.78l5.74-5.74a2.56,2.56,0,0,0,.77-1.87V40.12a2.52,2.52,0,0,0-.77-1.87l-5.74-5.74a2.53,2.53,0,0,0-1.87-.78H474.34a1.08,1.08,0,0,0-1.06,1.06V71.4ZM418.77,34.19,443,89.9l9.21-5.31L428.43,29.9a14.47,14.47,0,0,0-26.58,0L378.12,84.59l9.21,5.31,24.19-55.71a3.9,3.9,0,0,1,7.25,0Zm189.16-13a11.27,11.27,0,0,0-8.23,3.41L593,31.23a11.27,11.27,0,0,0-3.41,8.23V71.6A11.24,11.24,0,0,0,593,79.83l6.66,6.67a11.27,11.27,0,0,0,8.23,3.4h21.58a11.23,11.23,0,0,0,8.22-3.4l6.67-6.67a11.28,11.28,0,0,0,3.41-8.23V39.46a11.27,11.27,0,0,0-3.41-8.23l-6.67-6.67a11.24,11.24,0,0,0-8.22-3.41h-6.83V31.73h6.17a2.53,2.53,0,0,1,1.87.78l5.74,5.74a2.56,2.56,0,0,1,.77,1.87V70.94a2.56,2.56,0,0,1-.77,1.87l-5.74,5.74a2.53,2.53,0,0,1-1.87.78H608.58a2.56,2.56,0,0,1-1.87-.78L601,72.81a2.53,2.53,0,0,1-.78-1.87V40.12a2.53,2.53,0,0,1,.78-1.87l5.73-5.74a2.56,2.56,0,0,1,1.87-.78h6.17V21.15Zm95.45,0H667.46a11.45,11.45,0,0,0-10.75,7.19A11.26,11.26,0,0,0,659.23,41l38.49,36.5a1,1,0,0,1-.75,1.81H666.36V89.9H697a11.43,11.43,0,0,0,10.75-7.18A11.26,11.26,0,0,0,705.2,70l-38.49-36.5a1,1,0,0,1,.75-1.81h35.92ZM177.17,79.32h-41A1.33,1.33,0,0,1,134.86,78V33.25a1.31,1.31,0,0,1,.81-1.22,1.34,1.34,0,0,1,1.44.29l29,26.23a1.28,1.28,0,0,1,.29,1.44,1.31,1.31,0,0,1-1.23.82h-22.4V71.39h22.4a11.9,11.9,0,0,0,8.06-20.66l-29-26.43a11.9,11.9,0,0,0-20,8.75V78a11.91,11.91,0,0,0,11.9,11.9h41ZM539.39,89.9H528.81V32.79a11.66,11.66,0,0,1,11.64-11.64h20.31A11.24,11.24,0,0,1,569,24.56l6.67,6.67a11.26,11.26,0,0,1,3.4,8.23v6.13a11.23,11.23,0,0,1-3.4,8.22L562.89,66.58a1.32,1.32,0,0,0,0,1.87l14.2,14.2-7.71,7.25-14-14a11.9,11.9,0,0,1,0-16.83l12.76-12.76a.82.82,0,0,0,.31-.75V39.46a.8.8,0,0,0-.31-.75L561.5,32a.79.79,0,0,0-.74-.31H540.45a1.08,1.08,0,0,0-1.06,1.06ZM224.76,21.15H188.84a11.43,11.43,0,0,0-10.74,7.19A11.26,11.26,0,0,0,180.62,41l38.49,36.5a1,1,0,0,1-.75,1.81H187.74V89.9h30.62a11.44,11.44,0,0,0,10.75-7.18A11.27,11.27,0,0,0,226.58,70L188.1,33.54a1,1,0,0,1,.74-1.81h35.92Z"/><path class="cls-2" d="M717.6,21.16a8,8,0,1,1,0,16,8,8,0,1,1,0-16Zm-.1,1.4a6.41,6.41,0,0,0-6.35,6.55,6.41,6.41,0,0,0,6.45,6.61,6.3,6.3,0,0,0,6.26-6.56,6.38,6.38,0,0,0-6.3-6.6Zm-1.39,11h-1.55V25.16a16,16,0,0,1,2.9-.25,3.91,3.91,0,0,1,2.6.65,2.15,2.15,0,0,1,.84,1.8,2.12,2.12,0,0,1-1.59,1.95v.1a2.58,2.58,0,0,1,1.35,2.05,5.34,5.34,0,0,0,.65,2h-1.6a6,6,0,0,1-.7-2.15c-.2-.95-.75-1.35-1.9-1.35h-1Zm0-4.7h1c1.1,0,2.15-.35,2.15-1.3s-.55-1.4-2-1.4a5.74,5.74,0,0,0-1.19.1Z"/></g></g></svg>