<svg xmlns="http://www.w3.org/2000/svg" width="732.828" height="112.604" viewBox="0 0 732.828 112.604"><g transform="translate(-54.67 -53.82)"><path d="M678.29,53.82a37,37,0,1,0,37,37,37,37,0,0,0-37-37Zm0,52.46a15.5,15.5,0,1,1,15.5-15.5,15.5,15.5,0,0,1-15.5,15.5Z" fill="#9d9d9e" fill-rule="evenodd"/><path d="M68.7,144.27v.81a.23.23,0,0,1-.22.23H62.42v15.15a.23.23,0,0,1-.22.23h-1a.24.24,0,0,1-.23-.23V145.31H54.9a.24.24,0,0,1-.23-.23v-.81a.24.24,0,0,1,.23-.22H68.48A.23.23,0,0,1,68.7,144.27Z" fill="#000045"/><path d="M83.49,159.66v.8a.22.22,0,0,1-.23.23H71.74a.24.24,0,0,1-.23-.23V144.27a.24.24,0,0,1,.23-.22H83a.22.22,0,0,1,.23.22v.81a.23.23,0,0,1-.23.23H73v6.11h8.9a.22.22,0,0,1,.23.23v.81a.22.22,0,0,1-.23.22H73v6.74H83.26a.22.22,0,0,1,.23.24Z" fill="#000045"/><path d="M101.36,156.56a7.16,7.16,0,0,1-6.85,4.33,8.53,8.53,0,0,1,0-17,7.18,7.18,0,0,1,6.85,4.33.21.21,0,0,1-.11.32l-.78.38a.23.23,0,0,1-.32-.12,6,6,0,0,0-5.64-3.65c-3.79,0-6.77,2.92-6.77,7.27s3,7.26,6.77,7.26a6,6,0,0,0,5.64-3.64.23.23,0,0,1,.32-.13l.78.38a.22.22,0,0,1,.11.27Z" fill="#000045"/><path d="M118.67,144.27v16.46a.22.22,0,0,1-.23.23h-.07a.38.38,0,0,1-.3-.12l-12.36-14v13.64a.22.22,0,0,1-.23.23h-1a.22.22,0,0,1-.23-.23V144a.22.22,0,0,1,.23-.23h.07a.39.39,0,0,1,.3.12l12.36,14V144.27a.22.22,0,0,1,.22-.22h1a.21.21,0,0,1,.24.22Z" fill="#000045"/><path d="M138.28,152.37a8.32,8.32,0,1,1-8.31-8.53,8.22,8.22,0,0,1,8.31,8.53Zm-1.54,0c0-4.35-3-7.27-6.77-7.27s-6.78,2.92-6.78,7.27,3,7.26,6.78,7.26S136.74,156.72,136.74,152.37Z" fill="#000045"/><path d="M152.46,159.66v.8a.22.22,0,0,1-.23.23H141.49a.24.24,0,0,1-.23-.23V144.27a.24.24,0,0,1,.23-.22h1a.23.23,0,0,1,.22.22v15.15h9.5a.22.22,0,0,1,.25.24Z" fill="#000045"/><path d="M170.43,152.37a8.32,8.32,0,1,1-8.31-8.53,8.21,8.21,0,0,1,8.31,8.53Zm-1.54,0c0-4.35-3-7.27-6.77-7.27s-6.78,2.92-6.78,7.27,3,7.26,6.78,7.26S168.89,156.72,168.89,152.37Z" fill="#000045"/><path d="M191.83,144.05h1a.23.23,0,0,1,.22.22v16.19a.23.23,0,0,1-.22.23h-1a.24.24,0,0,1-.23-.23V144.27a.24.24,0,0,1,.23-.22Z" fill="#000045"/><path d="M210.82,160.69h-1.21a.26.26,0,0,1-.27-.18l-2.18-5h-8.22l-2.29,5a.27.27,0,0,1-.26.18h-1.08c-.16,0-.27-.1-.19-.27l7.6-16.47a.28.28,0,0,1,.26-.18h.38a.29.29,0,0,1,.27.18L211,160.42C211.07,160.59,211,160.69,210.82,160.69Zm-4.18-6.42-3.49-8.09-3.67,8.09Z" fill="#000045"/><path d="M230.28,159.66v.8a.23.23,0,0,1-.23.23H218.52a.24.24,0,0,1-.22-.23V144.27a.24.24,0,0,1,.22-.22h11.25a.22.22,0,0,1,.24.22v.81a.23.23,0,0,1-.24.23h-10v6.11h8.91a.22.22,0,0,1,.23.23v.81a.21.21,0,0,1-.23.22h-8.91v6.74h10.28a.23.23,0,0,1,.23.24Z" fill="#000045"/><path d="M238.57,144.05h1a.23.23,0,0,1,.22.22v16.19a.23.23,0,0,1-.22.23h-1a.24.24,0,0,1-.23-.23V144.27A.24.24,0,0,1,238.57,144.05Z" fill="#000045"/><path d="M257.46,144.27v16.46a.22.22,0,0,1-.23.23h-.07a.38.38,0,0,1-.3-.12l-12.36-14v13.64a.22.22,0,0,1-.23.23h-1a.22.22,0,0,1-.23-.23V144a.22.22,0,0,1,.23-.23h.07a.39.39,0,0,1,.3.12l12.36,14V144.27a.21.21,0,0,1,.22-.22h1a.21.21,0,0,1,.24.22Z" fill="#000045"/><path d="M277.07,152.37a8.32,8.32,0,1,1-8.31-8.53,8.22,8.22,0,0,1,8.31,8.53Zm-1.54,0c0-4.35-3-7.27-6.77-7.27S262,148,262,152.37s3,7.26,6.78,7.26S275.53,156.72,275.53,152.37Z" fill="#000045"/><path d="M293.67,144.32l-7.22,16.46a.29.29,0,0,1-.28.18h-.3a.27.27,0,0,1-.27-.18l-7.25-16.47c-.09-.17,0-.26.17-.26h1.24a.26.26,0,0,1,.27.17l6,14.3,6.05-14.3a.28.28,0,0,1,.28-.17h1.09C293.64,144.05,293.74,144.14,293.67,144.32Z" fill="#000045"/><path d="M308.68,160.69h-1.21a.25.25,0,0,1-.26-.18l-2.19-5H296.8l-2.28,5a.29.29,0,0,1-.27.18h-1.08c-.16,0-.26-.1-.19-.27l7.6-16.47a.28.28,0,0,1,.26-.18h.38a.28.28,0,0,1,.27.18l7.37,16.47C308.93,160.59,308.84,160.69,308.68,160.69Zm-4.17-6.42-3.5-8.09-3.66,8.09Z" fill="#000045"/><path d="M325.49,156.56a7.13,7.13,0,0,1-6.48,4.32l-.53,1.49c1.72-.42,3.25.2,3.25,1.82a2.33,2.33,0,0,1-2.58,2.22,4,4,0,0,1-2.14-.58.22.22,0,0,1-.1-.32l.13-.26c.06-.14.19-.15.32-.1a3.73,3.73,0,0,0,1.74.47,1.38,1.38,0,0,0,1.56-1.37c0-1.35-1.49-1.48-3-1.07-.2,0-.29,0-.21-.24l.72-2.06a8.54,8.54,0,0,1,.52-17,7.16,7.16,0,0,1,6.84,4.33.21.21,0,0,1-.11.32l-.77.38a.22.22,0,0,1-.32-.12,6,6,0,0,0-5.64-3.65c-3.8,0-6.78,2.92-6.78,7.27s3,7.26,6.78,7.26a6,6,0,0,0,5.64-3.64.23.23,0,0,1,.32-.13l.77.38A.22.22,0,0,1,325.49,156.56Z" fill="#000045"/><path d="M342.42,160.69h-1.2a.25.25,0,0,1-.27-.18l-2.18-5h-8.23l-2.28,5a.28.28,0,0,1-.27.18h-1.07c-.17,0-.27-.1-.2-.27l7.6-16.47a.29.29,0,0,1,.27-.18H335a.27.27,0,0,1,.27.18l7.37,16.47C342.67,160.59,342.59,160.69,342.42,160.69Zm-11.56-18.81c.07-1.88,1-2.64,2.21-2.64,1.79,0,2,1.83,3.34,1.83.87,0,1.33-.57,1.36-1.61a.24.24,0,0,1,.25-.22h.39c.13,0,.22.14.21.38-.11,1.78-1.07,2.5-2.21,2.5-1.79,0-2-1.85-3.34-1.85-.87,0-1.33.59-1.36,1.62a.23.23,0,0,1-.25.23h-.38a.21.21,0,0,1-.22-.24Zm7.39,12.39-3.5-8.09-3.66,8.09Z" fill="#000045"/><path d="M360.7,152.37a8.32,8.32,0,1,1-8.31-8.53,8.22,8.22,0,0,1,8.31,8.53Zm-1.54,0c0-4.35-3-7.27-6.77-7.27s-6.78,2.92-6.78,7.27,3,7.26,6.78,7.26S359.16,156.72,359.16,152.37Z" fill="#000045"/><path d="M383.23,144.27v16.46a.22.22,0,0,1-.23.23h-.07a.38.38,0,0,1-.3-.12l-12.36-14v13.64a.22.22,0,0,1-.22.23h-1a.22.22,0,0,1-.23-.23V144a.22.22,0,0,1,.23-.23h.07a.39.39,0,0,1,.3.12l12.36,14V144.27a.22.22,0,0,1,.23-.22h1a.21.21,0,0,1,.22.22Z" fill="#000045"/><path d="M402.84,152.37a8.32,8.32,0,1,1-8.31-8.53,8.22,8.22,0,0,1,8.31,8.53Zm-1.54,0c0-4.35-3-7.27-6.77-7.27s-6.78,2.92-6.78,7.27,3,7.26,6.78,7.26S401.3,156.72,401.3,152.37Z" fill="#000045"/><path d="M423.47,149.22c0,2.78-2,5.18-6.27,5.18h-4.79v6.06a.24.24,0,0,1-.22.23h-1a.24.24,0,0,1-.23-.23V144.27a.24.24,0,0,1,.23-.22h6C421.51,144.05,423.47,146.45,423.47,149.22Zm-1.54,0c0-2.08-1.31-3.91-5-3.91h-4.52v7.83h4.52C420.62,153.14,421.93,151.3,421.93,149.22Z" fill="#000045"/><path d="M437.93,160.69h-1a.25.25,0,0,1-.21-.13l-4.26-6.44h-5v6.33a.24.24,0,0,1-.23.23h-1a.24.24,0,0,1-.23-.23V144.27a.24.24,0,0,1,.23-.22H432c4.31,0,6.27,2.26,6.27,5,0,2.3-1.34,4.25-4.26,4.85l4.2,6.29a.287.287,0,0,1-.28.5Zm-1.25-11.6c0-2.08-1.3-3.78-5-3.78h-4.25v7.56h4.25C435.38,152.87,436.68,151.17,436.68,149.09Z" fill="#000045"/><path d="M457.35,152.37a8.32,8.32,0,1,1-8.31-8.53,8.22,8.22,0,0,1,8.31,8.53Zm-1.54,0c0-4.35-3-7.27-6.77-7.27s-6.78,2.92-6.78,7.27,3,7.26,6.78,7.26S455.81,156.72,455.81,152.37Z" fill="#000045"/><path d="M475.26,156.56a7.17,7.17,0,0,1-6.85,4.33,8.53,8.53,0,0,1,0-17,7.19,7.19,0,0,1,6.85,4.33.21.21,0,0,1-.11.32l-.78.38a.22.22,0,0,1-.32-.12,6,6,0,0,0-5.64-3.65c-3.8,0-6.77,2.92-6.77,7.27s3,7.26,6.77,7.26a6,6,0,0,0,5.64-3.64.23.23,0,0,1,.32-.13l.78.38A.22.22,0,0,1,475.26,156.56Z" fill="#000045"/><path d="M490.11,159.66v.8a.22.22,0,0,1-.23.23H478.36a.24.24,0,0,1-.23-.23V144.27a.24.24,0,0,1,.23-.22h11.25a.22.22,0,0,1,.23.22v.81a.23.23,0,0,1-.23.23h-10v6.11h8.92a.22.22,0,0,1,.23.23v.81a.22.22,0,0,1-.23.22H479.6v6.74h10.28a.22.22,0,0,1,.23.24Z" fill="#000045"/><path d="M505.08,156.29c0,3.26-3,4.6-6.21,4.6a10.39,10.39,0,0,1-5.9-1.82c-.13-.08-.2-.18-.12-.33l.35-.75a.21.21,0,0,1,.33-.09,9.39,9.39,0,0,0,5.4,1.73c2.56,0,4.62-.87,4.62-3.14,0-5.08-10.28-2.18-10.28-8.09,0-2.61,2.1-4.56,6-4.56a9.75,9.75,0,0,1,5.3,1.5.23.23,0,0,1,.11.33l-.37.8c-.06.13-.17.17-.36.05a8.54,8.54,0,0,0-4.66-1.45c-3.08,0-4.5,1.43-4.5,3.2C494.74,152.94,505.08,150.2,505.08,156.29Z" fill="#000045"/><path d="M520.09,156.29c0,3.26-3,4.6-6.21,4.6a10.41,10.41,0,0,1-5.9-1.82.23.23,0,0,1-.12-.33l.35-.75a.21.21,0,0,1,.33-.09,9.39,9.39,0,0,0,5.4,1.73c2.56,0,4.62-.87,4.62-3.14,0-5.08-10.28-2.18-10.28-8.09,0-2.61,2.1-4.56,6-4.56a9.72,9.72,0,0,1,5.3,1.5.23.23,0,0,1,.11.33l-.37.8c-.06.13-.17.17-.36.05a8.54,8.54,0,0,0-4.66-1.45c-3.07,0-4.49,1.43-4.49,3.2C509.76,152.94,520.09,150.2,520.09,156.29Z" fill="#000045"/><path d="M537.13,160.69h-1.21a.25.25,0,0,1-.26-.18l-2.18-5h-8.23l-2.28,5a.29.29,0,0,1-.27.18h-1.08c-.16,0-.26-.1-.19-.27L529,144a.28.28,0,0,1,.27-.18h.37a.28.28,0,0,1,.27.18l7.37,16.47C537.38,160.59,537.3,160.69,537.13,160.69ZM533,154.27l-3.5-8.09-3.66,8.09Z" fill="#000045"/><path d="M555.83,143.77h.32a.22.22,0,0,1,.23.23v16.46a.22.22,0,0,1-.23.23h-1a.23.23,0,0,1-.23-.23V147.14l-6.8,10.42c-.11.16-.24.14-.34,0L541,147.14v13.32a.22.22,0,0,1-.23.23h-1a.23.23,0,0,1-.24-.23V144a.23.23,0,0,1,.24-.23h.32a.37.37,0,0,1,.3.18l7.59,11.35,7.55-11.3a.37.37,0,0,1,.3-.23Z" fill="#000045"/><path d="M571.58,159.66v.8a.22.22,0,0,1-.23.23H559.83a.24.24,0,0,1-.23-.23V144.27a.24.24,0,0,1,.23-.22h11.25a.21.21,0,0,1,.23.22v.81a.22.22,0,0,1-.23.23h-10v6.11H570a.22.22,0,0,1,.23.23v.81a.22.22,0,0,1-.23.22h-8.91v6.74h10.27a.22.22,0,0,1,.22.24Z" fill="#000045"/><path d="M589,144.27v16.46a.22.22,0,0,1-.23.23h-.07a.38.38,0,0,1-.3-.12l-12.36-14v13.64a.22.22,0,0,1-.23.23h-1a.22.22,0,0,1-.23-.23V144a.22.22,0,0,1,.23-.23h.07a.39.39,0,0,1,.3.12l12.36,14V144.27a.22.22,0,0,1,.22-.22h1a.21.21,0,0,1,.24.22Z" fill="#000045"/><path d="M605.8,144.27v.81a.24.24,0,0,1-.22.23h-6.06v15.15a.24.24,0,0,1-.22.23h-1a.24.24,0,0,1-.22-.23V145.31h-6a.24.24,0,0,1-.23-.23v-.81a.24.24,0,0,1,.23-.22h13.58a.24.24,0,0,1,.14.22Z" fill="#000045"/><path d="M624.32,152.37a8.32,8.32,0,1,1-8.31-8.53,8.22,8.22,0,0,1,8.31,8.53Zm-1.54,0c0-4.35-3-7.27-6.77-7.27s-6.78,2.92-6.78,7.27,3,7.26,6.78,7.26S622.78,156.72,622.78,152.37Z" fill="#000045"/><path d="M646.85,152.37c0,5.32-3.82,8.32-8.45,8.32h-5.76a.24.24,0,0,1-.22-.23V144.27a.24.24,0,0,1,.22-.22h5.76C643,144.05,646.85,147.05,646.85,152.37Zm-1.54,0a6.64,6.64,0,0,0-7-7.06h-4.38v14.11h4.38a6.64,6.64,0,0,0,7-7.05Z" fill="#000045"/><path d="M661.81,159.66v.8a.23.23,0,0,1-.23.23H650.05a.24.24,0,0,1-.22-.23V144.27a.24.24,0,0,1,.22-.22h11.26a.22.22,0,0,1,.23.22v.81a.23.23,0,0,1-.23.23h-10v6.11h8.91a.22.22,0,0,1,.24.23v.81a.22.22,0,0,1-.24.22H651.3v6.74h10.28a.23.23,0,0,1,.23.24Z" fill="#000045"/><path d="M682.94,156.25c0,2.38-2,4.44-5.86,4.44h-7a.24.24,0,0,1-.23-.23V144.27a.24.24,0,0,1,.23-.22h6.5c3.9,0,5.73,1.85,5.73,4.23a3.81,3.81,0,0,1-3.56,3.88C681,152.31,682.94,153.74,682.94,156.25Zm-6.61-10.94h-5v6.26h5.07c3.14,0,4.38-1.28,4.38-3.17C680.79,146.73,679.75,145.31,676.33,145.31Zm5.07,10.81c0-2-1.34-3.3-4.72-3.3h-5.34v6.6h5.47C680.24,159.42,681.4,157.94,681.4,156.12Z" fill="#000045"/><path d="M702.31,152.37a8.32,8.32,0,1,1-8.31-8.53,8.22,8.22,0,0,1,8.31,8.53Zm-1.54,0c0-4.35-3-7.27-6.77-7.27s-6.78,2.92-6.78,7.27,3,7.26,6.78,7.26S700.77,156.72,700.77,152.37Z" fill="#000045"/><path d="M718.36,156.25c0,2.38-2,4.44-5.86,4.44h-7a.24.24,0,0,1-.23-.23V144.27a.24.24,0,0,1,.23-.22H712c3.9,0,5.73,1.85,5.73,4.23a3.81,3.81,0,0,1-3.56,3.88C716.46,152.31,718.36,153.74,718.36,156.25Zm-6.61-10.94h-5v6.26h5.07c3.14,0,4.38-1.28,4.38-3.17C716.21,146.73,715.17,145.31,711.75,145.31Zm5.07,10.81c0-2-1.34-3.3-4.72-3.3h-5.34v6.6h5.47C715.66,159.42,716.82,157.94,716.82,156.12Z" fill="#000045"/><path d="M721.57,144.05h1a.23.23,0,0,1,.22.22v16.19a.23.23,0,0,1-.22.23h-1a.24.24,0,0,1-.23-.23V144.27a.24.24,0,0,1,.23-.22Z" fill="#000045"/><path d="M740.46,144.27v16.46a.22.22,0,0,1-.23.23h-.07a.38.38,0,0,1-.3-.12l-12.36-14v13.64a.22.22,0,0,1-.23.23h-1a.22.22,0,0,1-.23-.23V144a.22.22,0,0,1,.23-.23h.07a.39.39,0,0,1,.3.12l12.36,14V144.27a.22.22,0,0,1,.23-.22h1a.21.21,0,0,1,.23.22Z" fill="#000045"/><path d="M758.21,160.69H757a.25.25,0,0,1-.26-.18l-2.18-5h-8.23l-2.28,5a.29.29,0,0,1-.27.18H742.7c-.16,0-.26-.1-.19-.27l7.6-16.47a.28.28,0,0,1,.27-.18h.37a.28.28,0,0,1,.27.18l7.37,16.47C758.46,160.59,758.37,160.69,758.21,160.69ZM754,154.27l-3.5-8.09-3.66,8.09Z" fill="#000045"/><path d="M772.13,156.29c0,3.26-3,4.6-6.22,4.6a10.35,10.35,0,0,1-5.89-1.82c-.14-.08-.2-.18-.13-.33l.35-.75a.21.21,0,0,1,.33-.09,9.43,9.43,0,0,0,5.41,1.73c2.55,0,4.61-.87,4.61-3.14,0-5.08-10.27-2.18-10.27-8.09,0-2.61,2.1-4.56,5.94-4.56a9.79,9.79,0,0,1,5.31,1.5.24.24,0,0,1,.11.33l-.38.8c-.06.13-.17.17-.36.05a8.511,8.511,0,0,0-4.66-1.45c-3.07,0-4.49,1.43-4.49,3.2C761.79,152.94,772.13,150.2,772.13,156.29Z" fill="#000045"/><path d="M188.15,153.37H183a.23.23,0,0,0-.23.23v.88a.23.23,0,0,0,.23.23h4v3.47a10.27,10.27,0,0,1-5.55,1.45c-3.79,0-6.77-2.91-6.77-7.26s3-7.27,6.77-7.27a6.05,6.05,0,0,1,5.57,3.13.23.23,0,0,0,.32.13l.78-.37a.22.22,0,0,0,.11-.33,7.28,7.28,0,0,0-6.78-3.82,8.53,8.53,0,0,0,0,17,11.47,11.47,0,0,0,6.89-2.13V153.6a.23.23,0,0,0-.19-.23Z" fill="#000045"/><path d="M779.5,54.26a7.72,7.72,0,1,1-6.917,3.775A7.72,7.72,0,0,1,779.5,54.26Zm-.09,1.35a6.34,6.34,0,1,0,.09,12.68,6.06,6.06,0,0,0,6-6.31,6.15,6.15,0,0,0-6.07-6.37Zm-1.35,10.56h-1.5V58.12a16,16,0,0,1,2.8-.24,3.81,3.81,0,0,1,2.51.62,2.1,2.1,0,0,1,.82,1.74,2.07,2.07,0,0,1-1.55,1.88v.1a2.47,2.47,0,0,1,1.31,2,5.712,5.712,0,0,0,.62,2h-1.54a6.22,6.22,0,0,1-.68-2.07c-.19-.92-.72-1.3-1.83-1.3h-1Zm0-4.53h1c1.06,0,2.07-.34,2.07-1.25S780.61,59,779.21,59a5.62,5.62,0,0,0-1.15.09Z" fill="#000045"/><path d="M767.81,104.24,732.53,70.77h0a1.25,1.25,0,0,1-.43-.94,1.28,1.28,0,0,1,1.28-1.28h31.78a1.23,1.23,0,0,0,1.22-1.23V56.87a1.23,1.23,0,0,0-1.22-1.23H729.71A12.53,12.53,0,0,0,718,63.49a12.39,12.39,0,0,0,2.78,13.87L756,110.82h0a1.28,1.28,0,0,1-.86,2.24H728.63a1.23,1.23,0,0,0-1.23,1.22v10.44a1.23,1.23,0,0,0,1.23,1.23h30.22a12.71,12.71,0,0,0,9-21.72Z" fill="#000045" fill-rule="evenodd"/><path d="M325,125.89a1.23,1.23,0,0,1-1.22-1.23V75.57a1.34,1.34,0,0,0-.4-1l-5.67-5.66a1.3,1.3,0,0,0-1-.4h-20a1.3,1.3,0,0,0-1,.4l-5.67,5.66a1.28,1.28,0,0,0-.4,1V106a1.34,1.34,0,0,0,.4,1l5.67,5.66a1.31,1.31,0,0,0,1,.41h20.43a1.23,1.23,0,0,1,1.23,1.23v10.44a1.23,1.23,0,0,1-1.22,1.23H296.07a12.32,12.32,0,0,1-9-3.72l-6.58-6.58a12.29,12.29,0,0,1-3.72-9V74.92a12.29,12.29,0,0,1,3.72-9l6.58-6.58a12.36,12.36,0,0,1,9-3.72h21.29a12.33,12.33,0,0,1,9,3.72l6.59,6.58a12.29,12.29,0,0,1,3.72,9v49.81a1.23,1.23,0,0,1-1.22,1.23Z" fill="#000045" fill-rule="evenodd"/><path d="M486.7,126a1.21,1.21,0,0,1-.38-.06,1.19,1.19,0,0,1-.74-.68l-23.88-55a2.62,2.62,0,0,0-4.9,0l-23.87,55a1.24,1.24,0,0,1-.74.68,1.32,1.32,0,0,1-.39.06,1.22,1.22,0,0,1-.61-.17l-9.09-5.24a1.23,1.23,0,0,1-.51-1.55L445,65a15.51,15.51,0,0,1,28.48,0l23.43,54a1.23,1.23,0,0,1-.51,1.55l-9.1,5.24a1.22,1.22,0,0,1-.6.21Z" fill="#000045" fill-rule="evenodd"/><path d="M369.64,126a12.31,12.31,0,0,1-9-3.72l-6.58-6.58a12.31,12.31,0,0,1-3.72-9V56.94a1.23,1.23,0,0,1,1.21-1.23L362,55.64a1.23,1.23,0,0,1,1.23,1.23V106a1.3,1.3,0,0,0,.4,1l5.67,5.67a1.28,1.28,0,0,0,1,.4h20a1.3,1.3,0,0,0,1-.4l5.66-5.67a1.27,1.27,0,0,0,.41-1V56.87a1.23,1.23,0,0,1,1.22-1.23H409a1.23,1.23,0,0,1,1.23,1.23v49.8a12.31,12.31,0,0,1-3.72,9l-6.59,6.58a12.29,12.29,0,0,1-9,3.72Z" fill="#000045" fill-rule="evenodd"/><path d="M204.19,113.06,165,113h0a1.28,1.28,0,0,1-1.28-1.28h0l.07-40.12a1.27,1.27,0,0,1,2.13-1h0l24.39,22h0a1.28,1.28,0,0,1-1,2.11h-19A1.22,1.22,0,0,0,169,96v10.45a1.22,1.22,0,0,0,1.22,1.22h22.12a13,13,0,0,0,8.78-22.52l-28.6-26.08a13,13,0,0,0-21.75,9.55V113a13,13,0,0,0,13,13h40.45a1.23,1.23,0,0,0,1.23-1.23V114.29a1.23,1.23,0,0,0-1.26-1.23Z" fill="#000045" fill-rule="evenodd"/><path d="M564.26,66l-6.58-6.58a12.3,12.3,0,0,0-9-3.73H523.42A12.74,12.74,0,0,0,510.71,68.4v38.11a1.23,1.23,0,0,0,1.23,1.23h10.44a1.23,1.23,0,0,0,1.23-1.23V69.82h0a1.28,1.28,0,0,1,1.28-1.28h23.16a1.3,1.3,0,0,1,1,.4l5.67,5.67a1.32,1.32,0,0,1,.4,1V106a1.3,1.3,0,0,1-.4,1L549,112.66a1.27,1.27,0,0,1-1,.41H511.94a1.23,1.23,0,0,0-1.23,1.23l.07,10.44A1.23,1.23,0,0,0,512,126h36.68a12.31,12.31,0,0,0,9-3.72l6.58-6.59a12.29,12.29,0,0,0,3.72-9V74.94A12.31,12.31,0,0,0,564.26,66Z" fill="#000045" fill-rule="evenodd"/><path d="M633.78,81V75a12.3,12.3,0,0,0-3.73-9l-6.58-6.58a12.28,12.28,0,0,0-9-3.73h-20A12.73,12.73,0,0,0,581.76,68.4v56.38A1.23,1.23,0,0,0,583,126h10.4a1.22,1.22,0,0,0,1.22-1.23V69.81a1.28,1.28,0,0,1,1.28-1.27h18.51L620.88,75v5.89L608.34,93.46a13,13,0,0,0,0,18.34l13.8,13.8a1.21,1.21,0,0,0,.86.36,1.25,1.25,0,0,0,.85-.33l7.6-7.16a1.22,1.22,0,0,0,0-1.76l-14-14.14L630.05,90A12.3,12.3,0,0,0,633.78,81Z" fill="#000045" fill-rule="evenodd"/><path d="M259.37,104.24,224.09,70.77h0a1.27,1.27,0,0,1,.86-2.22h31.77A1.23,1.23,0,0,0,258,67.31V56.87a1.23,1.23,0,0,0-1.23-1.23h-35.5a12.71,12.71,0,0,0-9,21.72l35.27,33.46h0a1.28,1.28,0,0,1-.86,2.24h-26.5a1.22,1.22,0,0,0-1.22,1.22v10.44a1.23,1.23,0,0,0,1.22,1.23H250.4a12.71,12.71,0,0,0,9-21.72Z" fill="#000045" fill-rule="evenodd"/><path d="M125.85,68a1.45,1.45,0,0,0-1.44-1.22H94.8a2.33,2.33,0,0,0-1.48,4h.06l22.84,20.78,5.68,5.17h0a2.33,2.33,0,0,0,3.92-1.3h0V68Zm-2.91,25.25h0a.27.27,0,0,1-.27.26.24.24,0,0,1-.18-.07h0L96.89,70.17h0a.29.29,0,0,1-.09-.2.26.26,0,0,1,.27-.26h25.61a.26.26,0,0,1,.26.26h0Z" fill="#000045"/><path d="M77.21,55.58H59.83L94,86.66l29.7,27L137.18,126h0V55.58Zm-9.56,3.26h0a.26.26,0,0,1-.08-.19.27.27,0,0,1,.27-.27h66.43v60.47a.27.27,0,0,1-.45.19h0Z" fill="#000045"/><path d="M131.19,125.33l-13.58-12.41H73a2.4,2.4,0,0,1-2.4-2.4v-.13h0v-2.17h0V90.72a1.39,1.39,0,0,1,2.36-1l5.61,5.15H74.81a1.34,1.34,0,0,0-1.35,1.35v10a1.941,1.941,0,0,0,0,.24v.58a1.36,1.36,0,0,0,1.35,1.35h37.95L98.91,95.72h0l-.9-.84-29.47-27L55.12,55.58V126H131.9Z" fill="#000045" fill-rule="evenodd"/></g></svg>